<?xml version="1.0" encoding="UTF-8" standalone="no"?>
<svg
   class="svg-icon"
   viewBox="0 0 887.46698 887.46698"
   version="1.1"
   id="svg6"
   sodipodi:docname="go-back.svg"
   width="887.46698"
   height="887.46698"
   inkscape:version="1.2.1 (9c6d41e410, 2022-07-14, custom)"
   xmlns:inkscape="http://www.inkscape.org/namespaces/inkscape"
   xmlns:sodipodi="http://sodipodi.sourceforge.net/DTD/sodipodi-0.dtd"
   xmlns="http://www.w3.org/2000/svg"
   xmlns:svg="http://www.w3.org/2000/svg">
  <defs
     id="defs10" />
  <sodipodi:namedview
     id="namedview8"
     pagecolor="#505050"
     bordercolor="#ffffff"
     borderopacity="1"
     inkscape:showpageshadow="0"
     inkscape:pageopacity="0"
     inkscape:pagecheckerboard="1"
     inkscape:deskcolor="#505050"
     showgrid="false"
     inkscape:zoom="0.83398438"
     inkscape:cx="443.6534"
     inkscape:cy="251.80328"
     inkscape:window-width="1920"
     inkscape:window-height="1019"
     inkscape:window-x="0"
     inkscape:window-y="33"
     inkscape:window-maximized="1"
     inkscape:current-layer="svg6" />
  <path
     d="M 615.25333,529.06666 A 33.9968,33.9968 0 0 1 591.12106,519.0656 L 444.58666,372.54826 298.05226,519.0656 A 34.133333,34.133333 0 1 1 249.78773,470.80106 L 420.4544,300.1344 a 34.133333,34.133333 0 0 1 48.26453,0 L 639.3856,470.80106 a 34.133333,34.133333 0 0 1 -24.13227,58.2656 z"
     id="path2" />
  <path
     d="m 444.58666,887.46666 h -0.85333 c -121.89013,0 -227.584,-43.8784 -314.14613,-130.44053 C 43.605333,671.01013 0,565.62346 0,443.73333 0,321.87733 43.588263,216.18346 129.536,129.62133 216.18346,43.588263 321.87733,0 443.73333,0 565.64053,0 671.0272,43.605333 756.992,129.5872 c 86.5792,86.54506 130.47466,192.23893 130.47466,314.14613 0,121.92427 -43.91253,227.34507 -130.49173,313.344 -85.9136,86.49387 -191.0272,130.38933 -312.38827,130.38933 z M 443.73333,34.133333 c -112.52053,0 -210.1248,40.2432 -290.06507,119.620267 -79.291727,79.85493 -119.534927,177.4592 -119.534927,289.97973 0,112.50347 40.22613,209.78347 119.586127,289.16053 79.9232,79.9232 177.5104,120.43947 290.01387,120.43947 h 0.85333 c 111.94027,0 208.91307,-40.4992 288.23894,-120.40533 C 812.81706,653.49973 853.33333,556.2368 853.33333,443.73333 853.33333,331.2128 812.8,233.64266 732.85973,153.71946 653.5168,74.359463 556.25386,34.133333 443.73333,34.133333 Z"
     id="path4" />
</svg>
